<svg xmlns="http://www.w3.org/2000/svg" xmlns:xlink="http://www.w3.org/1999/xlink" width="800" zoomAndPan="magnify" viewBox="0 0 600 262.499992" height="350" preserveAspectRatio="xMidYMid meet" version="1.0"><defs><g/><clipPath id="id1"><path d="M 0.570312 0 L 599.429688 0 L 599.429688 262 L 0.570312 262 Z M 0.570312 0 " clip-rule="nonzero"/></clipPath><clipPath id="id2"><path d="M 283 174 L 314 174 L 314 226.097656 L 283 226.097656 Z M 283 174 " clip-rule="nonzero"/></clipPath><clipPath id="id3"><path d="M 327 158 L 351.785156 158 L 351.785156 166 L 327 166 Z M 327 158 " clip-rule="nonzero"/></clipPath></defs><g clip-path="url(#id1)"><path fill="#ffffff" d="M 0.570312 0 L 599.429688 0 L 599.429688 269.488281 L 0.570312 269.488281 Z M 0.570312 0 " fill-opacity="1" fill-rule="nonzero"/><path fill="#01253b" d="M 0.570312 0 L 599.429688 0 L 599.429688 262 L 0.570312 262 Z M 0.570312 0 " fill-opacity="1" fill-rule="nonzero"/><path fill="#ffffff" d="M 0.570312 0 L 599.429688 0 L 599.429688 262 L 0.570312 262 Z M 0.570312 0 " fill-opacity="1" fill-rule="nonzero"/><path fill="#01253b" d="M 0.570312 0 L 599.429688 0 L 599.429688 262 L 0.570312 262 Z M 0.570312 0 " fill-opacity="1" fill-rule="nonzero"/></g><g clip-path="url(#id2)"><path fill="#1b557a" d="M 312.152344 192.816406 C 296.425781 216.214844 294.957031 226.117188 294.957031 226.117188 C 294.957031 226.117188 276.367188 206.769531 286.511719 183.019531 C 289.496094 176.03125 297.128906 172.339844 304.207031 175.046875 C 311.289062 177.75 316.390625 186.511719 312.152344 192.816406 Z M 312.152344 192.816406 " fill-opacity="1" fill-rule="nonzero"/></g><path fill="#346e93" d="M 325.390625 173.652344 C 325.390625 174.394531 325.316406 175.132812 325.171875 175.863281 C 325.027344 176.589844 324.816406 177.300781 324.53125 177.988281 C 324.25 178.675781 323.902344 179.328125 323.488281 179.945312 C 323.078125 180.5625 322.609375 181.136719 322.085938 181.664062 C 321.5625 182.1875 320.992188 182.65625 320.375 183.070312 C 319.761719 183.484375 319.109375 183.832031 318.425781 184.117188 C 317.742188 184.402344 317.035156 184.617188 316.308594 184.761719 C 315.582031 184.90625 314.847656 184.980469 314.109375 184.980469 C 313.367188 184.980469 312.632812 184.90625 311.90625 184.761719 C 311.179688 184.617188 310.472656 184.402344 309.789062 184.117188 C 309.105469 183.832031 308.457031 183.484375 307.839844 183.070312 C 307.222656 182.65625 306.652344 182.1875 306.128906 181.664062 C 305.605469 181.136719 305.136719 180.5625 304.726562 179.945312 C 304.316406 179.328125 303.96875 178.675781 303.683594 177.988281 C 303.398438 177.300781 303.1875 176.589844 303.042969 175.863281 C 302.898438 175.132812 302.824219 174.394531 302.824219 173.652344 C 302.824219 172.90625 302.898438 172.171875 303.042969 171.441406 C 303.1875 170.710938 303.398438 170.003906 303.683594 169.316406 C 303.96875 168.628906 304.316406 167.976562 304.726562 167.359375 C 305.136719 166.738281 305.605469 166.167969 306.128906 165.640625 C 306.652344 165.117188 307.222656 164.644531 307.839844 164.234375 C 308.457031 163.820312 309.105469 163.46875 309.789062 163.1875 C 310.472656 162.902344 311.179688 162.6875 311.90625 162.542969 C 312.632812 162.394531 313.367188 162.324219 314.109375 162.324219 C 314.847656 162.324219 315.582031 162.394531 316.308594 162.542969 C 317.035156 162.6875 317.742188 162.902344 318.425781 163.1875 C 319.109375 163.46875 319.761719 163.820312 320.375 164.234375 C 320.992188 164.644531 321.5625 165.117188 322.085938 165.640625 C 322.609375 166.167969 323.078125 166.738281 323.488281 167.359375 C 323.902344 167.976562 324.25 168.628906 324.53125 169.316406 C 324.816406 170.003906 325.027344 170.710938 325.171875 171.441406 C 325.316406 172.171875 325.390625 172.90625 325.390625 173.652344 Z M 325.390625 173.652344 " fill-opacity="1" fill-rule="nonzero"/><path fill="#1b557a" d="M 330.398438 160.546875 C 336.011719 167.90625 336.429688 178.992188 336.429688 178.992188 C 336.429688 178.992188 323.785156 176.675781 318.089844 169.265625 C 314.84375 165.046875 315.300781 159.425781 318.699219 157.011719 C 322.101562 154.601562 327.167969 156.316406 330.398438 160.546875 Z M 330.398438 160.546875 " fill-opacity="1" fill-rule="nonzero"/><path fill="#ffffff" d="M 326.800781 164.792969 C 327.09375 165.089844 327.367188 165.394531 327.621094 165.710938 C 327.878906 166.027344 328.113281 166.351562 328.324219 166.679688 C 328.535156 167.007812 328.71875 167.335938 328.875 167.660156 C 329.035156 167.988281 329.164062 168.308594 329.261719 168.621094 C 329.363281 168.933594 329.429688 169.230469 329.464844 169.519531 C 329.503906 169.804688 329.507812 170.070312 329.480469 170.320312 C 329.449219 170.570312 329.390625 170.792969 329.300781 170.996094 C 329.207031 171.199219 329.089844 171.375 328.9375 171.519531 C 328.785156 171.667969 328.609375 171.785156 328.402344 171.875 C 328.199219 171.960938 327.972656 172.015625 327.722656 172.039062 C 327.472656 172.0625 327.203125 172.054688 326.914062 172.015625 C 326.628906 171.972656 326.328125 171.902344 326.015625 171.796875 C 325.703125 171.695312 325.382812 171.5625 325.058594 171.398438 C 324.734375 171.238281 324.40625 171.046875 324.082031 170.832031 C 323.753906 170.617188 323.433594 170.378906 323.117188 170.121094 C 322.804688 169.859375 322.5 169.585938 322.210938 169.289062 C 321.917969 168.996094 321.644531 168.691406 321.390625 168.375 C 321.132812 168.054688 320.898438 167.734375 320.6875 167.40625 C 320.476562 167.078125 320.292969 166.75 320.136719 166.421875 C 319.976562 166.097656 319.847656 165.777344 319.75 165.464844 C 319.648438 165.152344 319.582031 164.851562 319.546875 164.566406 C 319.507812 164.28125 319.503906 164.011719 319.535156 163.765625 C 319.5625 163.515625 319.621094 163.289062 319.710938 163.089844 C 319.804688 162.886719 319.925781 162.710938 320.074219 162.5625 C 320.226562 162.417969 320.402344 162.296875 320.609375 162.210938 C 320.8125 162.125 321.039062 162.066406 321.289062 162.042969 C 321.542969 162.019531 321.808594 162.027344 322.097656 162.070312 C 322.382812 162.109375 322.683594 162.183594 322.996094 162.285156 C 323.308594 162.390625 323.628906 162.523438 323.953125 162.683594 C 324.277344 162.847656 324.605469 163.035156 324.929688 163.25 C 325.257812 163.46875 325.578125 163.703125 325.894531 163.964844 C 326.207031 164.222656 326.511719 164.5 326.800781 164.792969 Z M 326.800781 164.792969 " fill-opacity="1" fill-rule="nonzero"/><path fill="#1b557a" d="M 330.851562 162.246094 L 328.953125 161.683594 C 329.070312 161.285156 331.910156 151.890625 338.867188 148.492188 C 340.359375 147.777344 341.9375 147.378906 343.59375 147.304688 C 345.25 147.226562 346.855469 147.472656 348.410156 148.042969 C 348.539062 148.089844 348.65625 148.15625 348.753906 148.25 C 348.855469 148.339844 348.9375 148.449219 348.992188 148.570312 C 349.050781 148.695312 349.082031 148.824219 349.082031 148.960938 C 349.085938 149.097656 349.0625 149.226562 349.011719 149.355469 C 348.917969 149.597656 348.75 149.773438 348.511719 149.886719 C 348.273438 149.996094 348.027344 150.011719 347.777344 149.929688 C 344.875 148.972656 341.6875 148.609375 339.25 149.800781 C 333.066406 152.820312 330.882812 162.160156 330.851562 162.246094 Z M 330.851562 162.246094 " fill-opacity="1" fill-rule="nonzero"/><g clip-path="url(#id3)"><path fill="#1b557a" d="M 351.023438 165.363281 C 350.800781 165.5 350.558594 165.539062 350.300781 165.484375 C 350.042969 165.425781 349.84375 165.289062 349.695312 165.074219 C 347.953125 162.554688 345.863281 160.425781 343.203125 159.898438 C 336.476562 158.566406 328.867188 164.605469 328.792969 164.660156 L 327.617188 163.0625 C 327.949219 162.816406 335.855469 157.039062 343.445312 158.539062 C 345.074219 158.875 346.570312 159.511719 347.9375 160.453125 C 349.308594 161.390625 350.4375 162.558594 351.332031 163.953125 C 351.40625 164.066406 351.457031 164.191406 351.484375 164.324219 C 351.511719 164.457031 351.507812 164.589844 351.480469 164.722656 C 351.449219 164.855469 351.398438 164.980469 351.316406 165.089844 C 351.238281 165.203125 351.140625 165.292969 351.023438 165.363281 Z M 351.023438 165.363281 " fill-opacity="1" fill-rule="nonzero"/></g><path fill="#96cdef" d="M 312.800781 162.679688 C 312.800781 162.679688 305.320312 118.679688 295.460938 108.78125 C 285.605469 98.882812 280.457031 104.785156 280.496094 108.542969 C 280.664062 124.449219 311.375 164.113281 311.375 164.113281 Z M 312.800781 162.679688 " fill-opacity="1" fill-rule="nonzero"/><path fill="#96cdef" d="M 308.683594 165.828125 C 308.683594 165.828125 279.175781 128.34375 264.859375 124.125 C 250.542969 119.902344 248.722656 128.097656 250.679688 131.605469 C 258.960938 146.464844 308.078125 167.90625 308.078125 167.90625 Z M 308.683594 165.828125 " fill-opacity="1" fill-rule="nonzero"/><path fill="#96cdef" d="M 286.605469 184.964844 C 288.3125 186.875 290.257812 188.507812 292.441406 189.859375 C 294.625 191.210938 296.957031 192.226562 299.433594 192.910156 C 302.117188 193.707031 304.859375 194.109375 307.660156 194.121094 C 308.9375 194.125 310.207031 194.027344 311.472656 193.832031 C 311.695312 193.496094 311.921875 193.15625 312.152344 192.8125 C 312.78125 191.875 313.222656 190.859375 313.472656 189.761719 C 313.722656 188.664062 313.773438 187.554688 313.613281 186.441406 C 313.242188 186.59375 312.886719 186.714844 312.578125 186.808594 C 310.722656 187.300781 308.835938 187.527344 306.914062 187.484375 C 304.992188 187.441406 303.117188 187.128906 301.285156 186.554688 C 299.429688 186.046875 297.679688 185.292969 296.035156 184.292969 C 294.394531 183.292969 292.925781 182.085938 291.628906 180.671875 C 290.941406 179.875 290.382812 179 289.949219 178.042969 C 288.460938 179.46875 287.316406 181.128906 286.511719 183.023438 C 286.339844 183.429688 286.175781 183.835938 286.015625 184.242188 C 286.203125 184.484375 286.402344 184.722656 286.605469 184.964844 Z M 286.605469 184.964844 " fill-opacity="1" fill-rule="nonzero"/><path fill="#96cdef" d="M 300.78125 211.695312 C 297.574219 212.195312 294.414062 211.972656 291.308594 211.035156 C 289.046875 210.378906 286.945312 209.390625 284.996094 208.074219 C 285.910156 211.238281 287.15625 214.269531 288.726562 217.167969 C 288.972656 217.246094 289.214844 217.324219 289.460938 217.394531 C 292.082031 218.175781 294.761719 218.582031 297.496094 218.617188 C 298.3125 216.703125 299.382812 214.40625 300.78125 211.695312 Z M 300.78125 211.695312 " fill-opacity="1" fill-rule="nonzero"/><path fill="#96cdef" d="M 295.582031 199.113281 C 290.058594 197.492188 285.640625 193.949219 284.191406 190.449219 C 283.542969 193.671875 283.339844 196.917969 283.582031 200.195312 C 286.601562 202.648438 289.984375 204.40625 293.730469 205.472656 C 296.429688 206.273438 299.1875 206.683594 302.003906 206.699219 C 302.515625 206.699219 303.023438 206.683594 303.523438 206.652344 C 304.867188 204.289062 306.414062 201.695312 308.207031 198.859375 C 304.984375 200.265625 300.246094 200.476562 295.582031 199.113281 Z M 295.582031 199.113281 " fill-opacity="1" fill-rule="nonzero"/><g fill="#ffffff" fill-opacity="1"><g transform="translate(111.358074, 73.541145)"><g><path d="M 3.984375 -31.015625 L 7.34375 -31.015625 L 7.34375 -18.109375 L 7.5 -18.109375 C 8.894531 -20.796875 11.117188 -22.140625 14.171875 -22.140625 C 16.828125 -22.140625 18.898438 -21.144531 20.390625 -19.15625 C 21.890625 -17.175781 22.640625 -14.394531 22.640625 -10.8125 C 22.640625 -7.238281 21.890625 -4.457031 20.390625 -2.46875 C 18.898438 -0.488281 16.828125 0.5 14.171875 0.5 C 11.117188 0.5 8.894531 -0.835938 7.5 -3.515625 L 7.34375 -3.515625 L 7.34375 0 L 3.984375 0 Z M 12.875 -2.46875 C 14.820312 -2.46875 16.332031 -3.0625 17.40625 -4.25 C 18.488281 -5.4375 19.03125 -7.007812 19.03125 -8.96875 L 19.03125 -12.65625 C 19.03125 -14.613281 18.488281 -16.1875 17.40625 -17.375 C 16.332031 -18.5625 14.820312 -19.15625 12.875 -19.15625 C 12.113281 -19.15625 11.394531 -19.054688 10.71875 -18.859375 C 10.050781 -18.671875 9.46875 -18.382812 8.96875 -18 C 8.46875 -17.625 8.070312 -17.160156 7.78125 -16.609375 C 7.488281 -16.066406 7.34375 -15.4375 7.34375 -14.71875 L 7.34375 -6.921875 C 7.34375 -6.191406 7.488281 -5.550781 7.78125 -5 C 8.070312 -4.457031 8.46875 -4 8.96875 -3.625 C 9.46875 -3.25 10.050781 -2.960938 10.71875 -2.765625 C 11.394531 -2.566406 12.113281 -2.46875 12.875 -2.46875 Z M 12.875 -2.46875 "/></g></g></g><g fill="#ffffff" fill-opacity="1"><g transform="translate(136.51012, 73.541145)"><g><path d="M 3.984375 -21.625 L 7.34375 -21.625 L 7.34375 -18.109375 L 7.5 -18.109375 C 8.894531 -20.796875 11.117188 -22.140625 14.171875 -22.140625 C 16.828125 -22.140625 18.898438 -21.144531 20.390625 -19.15625 C 21.890625 -17.175781 22.640625 -14.394531 22.640625 -10.8125 C 22.640625 -7.238281 21.890625 -4.457031 20.390625 -2.46875 C 18.898438 -0.488281 16.828125 0.5 14.171875 0.5 C 11.117188 0.5 8.894531 -0.835938 7.5 -3.515625 L 7.34375 -3.515625 L 7.34375 8.390625 L 3.984375 8.390625 Z M 12.875 -2.46875 C 14.820312 -2.46875 16.332031 -3.0625 17.40625 -4.25 C 18.488281 -5.4375 19.03125 -7.007812 19.03125 -8.96875 L 19.03125 -12.65625 C 19.03125 -14.613281 18.488281 -16.1875 17.40625 -17.375 C 16.332031 -18.5625 14.820312 -19.15625 12.875 -19.15625 C 12.113281 -19.15625 11.394531 -19.054688 10.71875 -18.859375 C 10.050781 -18.671875 9.46875 -18.382812 8.96875 -18 C 8.46875 -17.625 8.070312 -17.160156 7.78125 -16.609375 C 7.488281 -16.066406 7.34375 -15.4375 7.34375 -14.71875 L 7.34375 -6.921875 C 7.34375 -6.191406 7.488281 -5.550781 7.78125 -5 C 8.070312 -4.457031 8.46875 -4 8.96875 -3.625 C 9.46875 -3.25 10.050781 -2.960938 10.71875 -2.765625 C 11.394531 -2.566406 12.113281 -2.46875 12.875 -2.46875 Z M 12.875 -2.46875 "/></g></g></g><g fill="#ffffff" fill-opacity="1"><g transform="translate(161.662165, 73.541145)"><g><path d="M 3.484375 -2.84375 L 10.78125 -2.84375 L 10.78125 -18.78125 L 3.0625 -18.78125 L 3.0625 -21.625 L 10.78125 -21.625 L 10.78125 -26.078125 C 10.78125 -27.523438 11.160156 -28.707031 11.921875 -29.625 C 12.691406 -30.550781 13.898438 -31.015625 15.546875 -31.015625 L 22.8125 -31.015625 L 22.8125 -28.171875 L 14.125 -28.171875 L 14.125 -21.625 L 22.8125 -21.625 L 22.8125 -18.78125 L 14.125 -18.78125 L 14.125 -2.84375 L 21.84375 -2.84375 L 21.84375 0 L 3.484375 0 Z M 3.484375 -2.84375 "/></g></g></g><g fill="#ffffff" fill-opacity="1"><g transform="translate(186.814211, 73.541145)"><g><path d="M 13.625 0 C 11.976562 0 10.769531 -0.457031 10 -1.375 C 9.226562 -2.300781 8.84375 -3.492188 8.84375 -4.953125 L 8.84375 -18.78125 L 1.640625 -18.78125 L 1.640625 -21.625 L 7 -21.625 C 7.726562 -21.625 8.238281 -21.769531 8.53125 -22.0625 C 8.820312 -22.363281 8.96875 -22.878906 8.96875 -23.609375 L 8.96875 -29.265625 L 12.203125 -29.265625 L 12.203125 -21.625 L 22.046875 -21.625 L 22.046875 -18.78125 L 12.203125 -18.78125 L 12.203125 -2.84375 L 22.046875 -2.84375 L 22.046875 0 Z M 13.625 0 "/></g></g></g><g fill="#ffffff" fill-opacity="1"><g transform="translate(211.966257, 73.541145)"><g><path d="M 3.234375 -2.84375 L 9.5625 -2.84375 L 9.5625 -18.78125 L 3.234375 -18.78125 L 3.234375 -21.625 L 12.90625 -21.625 L 12.90625 -16.1875 L 13.125 -16.1875 C 13.570312 -17.882812 14.414062 -19.210938 15.65625 -20.171875 C 16.894531 -21.140625 18.484375 -21.625 20.421875 -21.625 L 23.4375 -21.625 L 23.4375 -18.28125 L 19.375 -18.28125 C 17.4375 -18.28125 15.875 -17.71875 14.6875 -16.59375 C 13.5 -15.476562 12.90625 -14.015625 12.90625 -12.203125 L 12.90625 -2.84375 L 21.296875 -2.84375 L 21.296875 0 L 3.234375 0 Z M 3.234375 -2.84375 "/></g></g></g><g fill="#ffffff" fill-opacity="1"><g transform="translate(237.118302, 73.541145)"><g><path d="M 20.75 0 C 19.4375 0 18.5 -0.332031 17.9375 -1 C 17.382812 -1.675781 17.035156 -2.515625 16.890625 -3.515625 L 16.6875 -3.515625 C 16.207031 -2.265625 15.441406 -1.28125 14.390625 -0.5625 C 13.347656 0.144531 11.945312 0.5 10.1875 0.5 C 7.925781 0.5 6.125 -0.0820312 4.78125 -1.25 C 3.4375 -2.425781 2.765625 -4.035156 2.765625 -6.078125 C 2.765625 -8.085938 3.5 -9.632812 4.96875 -10.71875 C 6.4375 -11.8125 8.804688 -12.359375 12.078125 -12.359375 L 16.6875 -12.359375 L 16.6875 -14.5 C 16.6875 -16.09375 16.238281 -17.285156 15.34375 -18.078125 C 14.445312 -18.878906 13.175781 -19.28125 11.53125 -19.28125 C 10.070312 -19.28125 8.878906 -18.992188 7.953125 -18.421875 C 7.035156 -17.847656 6.300781 -17.070312 5.75 -16.09375 L 3.484375 -17.78125 C 3.765625 -18.332031 4.140625 -18.875 4.609375 -19.40625 C 5.085938 -19.9375 5.675781 -20.40625 6.375 -20.8125 C 7.070312 -21.21875 7.867188 -21.539062 8.765625 -21.78125 C 9.660156 -22.019531 10.648438 -22.140625 11.734375 -22.140625 C 14.273438 -22.140625 16.289062 -21.492188 17.78125 -20.203125 C 19.28125 -18.921875 20.03125 -17.132812 20.03125 -14.84375 L 20.03125 -2.9375 L 23.0625 -2.9375 L 23.0625 0 Z M 10.78125 -2.3125 C 11.644531 -2.3125 12.429688 -2.414062 13.140625 -2.625 C 13.859375 -2.832031 14.476562 -3.109375 15 -3.453125 C 15.53125 -3.804688 15.941406 -4.226562 16.234375 -4.71875 C 16.535156 -5.207031 16.6875 -5.726562 16.6875 -6.28125 L 16.6875 -9.859375 L 12.078125 -9.859375 C 10.066406 -9.859375 8.597656 -9.578125 7.671875 -9.015625 C 6.742188 -8.453125 6.28125 -7.640625 6.28125 -6.578125 L 6.28125 -5.703125 C 6.28125 -4.585938 6.675781 -3.742188 7.46875 -3.171875 C 8.269531 -2.597656 9.375 -2.3125 10.78125 -2.3125 Z M 10.78125 -2.3125 "/></g></g></g><g fill="#ffffff" fill-opacity="1"><g transform="translate(262.270348, 73.541145)"><g><path d="M 13.328125 0.5 C 11.765625 0.5 10.375 0.226562 9.15625 -0.3125 C 7.945312 -0.851562 6.921875 -1.613281 6.078125 -2.59375 C 5.242188 -3.570312 4.609375 -4.757812 4.171875 -6.15625 C 3.734375 -7.5625 3.515625 -9.113281 3.515625 -10.8125 C 3.515625 -12.519531 3.738281 -14.070312 4.1875 -15.46875 C 4.632812 -16.863281 5.273438 -18.054688 6.109375 -19.046875 C 6.953125 -20.046875 7.972656 -20.8125 9.171875 -21.34375 C 10.378906 -21.875 11.753906 -22.140625 13.296875 -22.140625 C 15.390625 -22.140625 17.09375 -21.675781 18.40625 -20.75 C 19.71875 -19.832031 20.679688 -18.628906 21.296875 -17.140625 L 18.609375 -15.71875 C 18.222656 -16.832031 17.570312 -17.695312 16.65625 -18.3125 C 15.75 -18.925781 14.628906 -19.234375 13.296875 -19.234375 C 12.316406 -19.234375 11.441406 -19.070312 10.671875 -18.75 C 9.898438 -18.4375 9.25 -17.984375 8.71875 -17.390625 C 8.1875 -16.804688 7.785156 -16.109375 7.515625 -15.296875 C 7.253906 -14.484375 7.125 -13.601562 7.125 -12.65625 L 7.125 -8.96875 C 7.125 -8.019531 7.253906 -7.140625 7.515625 -6.328125 C 7.785156 -5.515625 8.1875 -4.816406 8.71875 -4.234375 C 9.25 -3.648438 9.90625 -3.195312 10.6875 -2.875 C 11.46875 -2.550781 12.363281 -2.390625 13.375 -2.390625 C 14.820312 -2.390625 16.019531 -2.722656 16.96875 -3.390625 C 17.925781 -4.066406 18.679688 -4.988281 19.234375 -6.15625 L 21.625 -4.53125 C 20.988281 -3.070312 19.988281 -1.867188 18.625 -0.921875 C 17.269531 0.0234375 15.503906 0.5 13.328125 0.5 Z M 13.328125 0.5 "/></g></g></g><g fill="#ffffff" fill-opacity="1"><g transform="translate(287.422393, 73.541145)"><g><path d="M 12.953125 0.5 C 11.390625 0.5 9.984375 0.234375 8.734375 -0.296875 C 7.492188 -0.828125 6.429688 -1.585938 5.546875 -2.578125 C 4.671875 -3.566406 3.992188 -4.753906 3.515625 -6.140625 C 3.046875 -7.523438 2.8125 -9.070312 2.8125 -10.78125 C 2.8125 -12.507812 3.054688 -14.070312 3.546875 -15.46875 C 4.035156 -16.863281 4.710938 -18.054688 5.578125 -19.046875 C 6.441406 -20.046875 7.476562 -20.8125 8.6875 -21.34375 C 9.90625 -21.875 11.257812 -22.140625 12.75 -22.140625 C 14.195312 -22.140625 15.515625 -21.875 16.703125 -21.34375 C 17.890625 -20.8125 18.898438 -20.078125 19.734375 -19.140625 C 20.578125 -18.203125 21.222656 -17.085938 21.671875 -15.796875 C 22.117188 -14.515625 22.34375 -13.109375 22.34375 -11.578125 L 22.34375 -9.984375 L 6.328125 -9.984375 L 6.328125 -8.96875 C 6.328125 -8.019531 6.476562 -7.140625 6.78125 -6.328125 C 7.09375 -5.515625 7.535156 -4.816406 8.109375 -4.234375 C 8.679688 -3.648438 9.378906 -3.195312 10.203125 -2.875 C 11.023438 -2.550781 11.941406 -2.390625 12.953125 -2.390625 C 14.410156 -2.390625 15.664062 -2.722656 16.71875 -3.390625 C 17.78125 -4.066406 18.59375 -4.988281 19.15625 -6.15625 L 21.625 -4.484375 C 20.988281 -3.035156 19.921875 -1.84375 18.421875 -0.90625 C 16.929688 0.03125 15.109375 0.5 12.953125 0.5 Z M 12.75 -19.375 C 11.820312 -19.375 10.96875 -19.203125 10.1875 -18.859375 C 9.40625 -18.523438 8.726562 -18.0625 8.15625 -17.46875 C 7.582031 -16.882812 7.132812 -16.195312 6.8125 -15.40625 C 6.488281 -14.613281 6.328125 -13.738281 6.328125 -12.78125 L 6.328125 -12.5 L 18.734375 -12.5 L 18.734375 -12.953125 C 18.734375 -13.898438 18.585938 -14.765625 18.296875 -15.546875 C 18.003906 -16.335938 17.597656 -17.019531 17.078125 -17.59375 C 16.566406 -18.164062 15.9375 -18.601562 15.1875 -18.90625 C 14.445312 -19.21875 13.632812 -19.375 12.75 -19.375 Z M 12.75 -19.375 "/></g></g></g><g fill="#ffffff" fill-opacity="1"><g transform="translate(312.574439, 73.541145)"><g><path d="M 6.5 -10.984375 L 6.5 -14.5 L 18.65625 -14.5 L 18.65625 -10.984375 Z M 6.5 -10.984375 "/></g></g></g><g fill="#38b6ff" fill-opacity="1"><g transform="translate(337.722786, 73.541145)"><g><path d="M 10.4375 0 L 2.6875 -21.625 L 6.078125 -21.625 L 9.1875 -12.578125 L 12.53125 -2.8125 L 12.703125 -2.8125 L 16.0625 -12.578125 L 19.15625 -21.625 L 22.46875 -21.625 L 14.71875 0 Z M 10.4375 0 "/></g></g></g><g fill="#38b6ff" fill-opacity="1"><g transform="translate(362.874831, 73.541145)"><g><path d="M 12.828125 0.5 C 10.566406 0.5 8.617188 0.117188 6.984375 -0.640625 C 5.347656 -1.410156 3.957031 -2.441406 2.8125 -3.734375 L 5.078125 -5.703125 C 6.109375 -4.609375 7.238281 -3.769531 8.46875 -3.1875 C 9.695312 -2.601562 11.175781 -2.3125 12.90625 -2.3125 C 14.582031 -2.3125 15.957031 -2.609375 17.03125 -3.203125 C 18.113281 -3.804688 18.65625 -4.75 18.65625 -6.03125 C 18.65625 -6.59375 18.550781 -7.0625 18.34375 -7.4375 C 18.132812 -7.8125 17.847656 -8.109375 17.484375 -8.328125 C 17.117188 -8.554688 16.710938 -8.734375 16.265625 -8.859375 C 15.816406 -8.992188 15.34375 -9.101562 14.84375 -9.1875 L 11.4375 -9.6875 C 10.6875 -9.800781 9.867188 -9.953125 8.984375 -10.140625 C 8.109375 -10.335938 7.304688 -10.648438 6.578125 -11.078125 C 5.847656 -11.515625 5.238281 -12.097656 4.75 -12.828125 C 4.269531 -13.554688 4.03125 -14.503906 4.03125 -15.671875 C 4.03125 -16.765625 4.242188 -17.707031 4.671875 -18.5 C 5.109375 -19.300781 5.71875 -19.972656 6.5 -20.515625 C 7.28125 -21.066406 8.203125 -21.472656 9.265625 -21.734375 C 10.328125 -22.003906 11.488281 -22.140625 12.75 -22.140625 C 14.695312 -22.140625 16.390625 -21.832031 17.828125 -21.21875 C 19.273438 -20.601562 20.515625 -19.75 21.546875 -18.65625 L 19.375 -16.59375 C 19.113281 -16.90625 18.796875 -17.222656 18.421875 -17.546875 C 18.046875 -17.867188 17.582031 -18.160156 17.03125 -18.421875 C 16.488281 -18.691406 15.851562 -18.910156 15.125 -19.078125 C 14.40625 -19.242188 13.570312 -19.328125 12.625 -19.328125 C 10.914062 -19.328125 9.609375 -19.03125 8.703125 -18.4375 C 7.796875 -17.851562 7.34375 -17.003906 7.34375 -15.890625 C 7.34375 -15.328125 7.445312 -14.859375 7.65625 -14.484375 C 7.863281 -14.109375 8.148438 -13.804688 8.515625 -13.578125 C 8.878906 -13.359375 9.289062 -13.1875 9.75 -13.0625 C 10.207031 -12.9375 10.675781 -12.832031 11.15625 -12.75 L 14.546875 -12.234375 C 15.328125 -12.128906 16.148438 -11.976562 17.015625 -11.78125 C 17.878906 -11.582031 18.675781 -11.265625 19.40625 -10.828125 C 20.132812 -10.398438 20.742188 -9.820312 21.234375 -9.09375 C 21.722656 -8.363281 21.96875 -7.414062 21.96875 -6.25 C 21.96875 -4.09375 21.132812 -2.425781 19.46875 -1.25 C 17.8125 -0.0820312 15.597656 0.5 12.828125 0.5 Z M 12.828125 0.5 "/></g></g></g><g fill="#38b6ff" fill-opacity="1"><g transform="translate(388.026877, 73.541145)"><g><path d="M 13.328125 0.5 C 11.765625 0.5 10.375 0.226562 9.15625 -0.3125 C 7.945312 -0.851562 6.921875 -1.613281 6.078125 -2.59375 C 5.242188 -3.570312 4.609375 -4.757812 4.171875 -6.15625 C 3.734375 -7.5625 3.515625 -9.113281 3.515625 -10.8125 C 3.515625 -12.519531 3.738281 -14.070312 4.1875 -15.46875 C 4.632812 -16.863281 5.273438 -18.054688 6.109375 -19.046875 C 6.953125 -20.046875 7.972656 -20.8125 9.171875 -21.34375 C 10.378906 -21.875 11.753906 -22.140625 13.296875 -22.140625 C 15.390625 -22.140625 17.09375 -21.675781 18.40625 -20.75 C 19.71875 -19.832031 20.679688 -18.628906 21.296875 -17.140625 L 18.609375 -15.71875 C 18.222656 -16.832031 17.570312 -17.695312 16.65625 -18.3125 C 15.75 -18.925781 14.628906 -19.234375 13.296875 -19.234375 C 12.316406 -19.234375 11.441406 -19.070312 10.671875 -18.75 C 9.898438 -18.4375 9.25 -17.984375 8.71875 -17.390625 C 8.1875 -16.804688 7.785156 -16.109375 7.515625 -15.296875 C 7.253906 -14.484375 7.125 -13.601562 7.125 -12.65625 L 7.125 -8.96875 C 7.125 -8.019531 7.253906 -7.140625 7.515625 -6.328125 C 7.785156 -5.515625 8.1875 -4.816406 8.71875 -4.234375 C 9.25 -3.648438 9.90625 -3.195312 10.6875 -2.875 C 11.46875 -2.550781 12.363281 -2.390625 13.375 -2.390625 C 14.820312 -2.390625 16.019531 -2.722656 16.96875 -3.390625 C 17.925781 -4.066406 18.679688 -4.988281 19.234375 -6.15625 L 21.625 -4.53125 C 20.988281 -3.070312 19.988281 -1.867188 18.625 -0.921875 C 17.269531 0.0234375 15.503906 0.5 13.328125 0.5 Z M 13.328125 0.5 "/></g></g></g><g fill="#38b6ff" fill-opacity="1"><g transform="translate(413.178923, 73.541145)"><g><path d="M 12.578125 0.5 C 11.066406 0.5 9.703125 0.234375 8.484375 -0.296875 C 7.273438 -0.828125 6.242188 -1.585938 5.390625 -2.578125 C 4.535156 -3.566406 3.882812 -4.753906 3.4375 -6.140625 C 2.988281 -7.523438 2.765625 -9.082031 2.765625 -10.8125 C 2.765625 -12.519531 2.988281 -14.070312 3.4375 -15.46875 C 3.882812 -16.863281 4.535156 -18.054688 5.390625 -19.046875 C 6.242188 -20.046875 7.273438 -20.8125 8.484375 -21.34375 C 9.703125 -21.875 11.066406 -22.140625 12.578125 -22.140625 C 14.085938 -22.140625 15.445312 -21.875 16.65625 -21.34375 C 17.875 -20.8125 18.910156 -20.046875 19.765625 -19.046875 C 20.617188 -18.054688 21.269531 -16.863281 21.71875 -15.46875 C 22.164062 -14.070312 22.390625 -12.519531 22.390625 -10.8125 C 22.390625 -9.082031 22.164062 -7.523438 21.71875 -6.140625 C 21.269531 -4.753906 20.617188 -3.566406 19.765625 -2.578125 C 18.910156 -1.585938 17.875 -0.828125 16.65625 -0.296875 C 15.445312 0.234375 14.085938 0.5 12.578125 0.5 Z M 12.578125 -2.390625 C 14.453125 -2.390625 15.960938 -2.945312 17.109375 -4.0625 C 18.253906 -5.1875 18.828125 -6.921875 18.828125 -9.265625 L 18.828125 -12.359375 C 18.828125 -14.710938 18.253906 -16.445312 17.109375 -17.5625 C 15.960938 -18.675781 14.453125 -19.234375 12.578125 -19.234375 C 10.703125 -19.234375 9.191406 -18.675781 8.046875 -17.5625 C 6.898438 -16.445312 6.328125 -14.710938 6.328125 -12.359375 L 6.328125 -9.265625 C 6.328125 -6.921875 6.898438 -5.1875 8.046875 -4.0625 C 9.191406 -2.945312 10.703125 -2.390625 12.578125 -2.390625 Z M 12.578125 -2.390625 "/></g></g></g><g fill="#38b6ff" fill-opacity="1"><g transform="translate(438.330968, 73.541145)"><g><path d="M 17.8125 -3.515625 L 17.65625 -3.515625 C 16.25 -0.835938 14.023438 0.5 10.984375 0.5 C 8.328125 0.5 6.25 -0.488281 4.75 -2.46875 C 3.257812 -4.457031 2.515625 -7.238281 2.515625 -10.8125 C 2.515625 -14.394531 3.257812 -17.175781 4.75 -19.15625 C 6.25 -21.144531 8.328125 -22.140625 10.984375 -22.140625 C 14.023438 -22.140625 16.25 -20.796875 17.65625 -18.109375 L 17.8125 -18.109375 L 17.8125 -31.015625 L 21.171875 -31.015625 L 21.171875 0 L 17.8125 0 Z M 12.28125 -2.46875 C 13.039062 -2.46875 13.753906 -2.566406 14.421875 -2.765625 C 15.085938 -2.960938 15.671875 -3.25 16.171875 -3.625 C 16.679688 -4 17.082031 -4.457031 17.375 -5 C 17.664062 -5.550781 17.8125 -6.191406 17.8125 -6.921875 L 17.8125 -14.71875 C 17.8125 -15.4375 17.664062 -16.066406 17.375 -16.609375 C 17.082031 -17.160156 16.679688 -17.625 16.171875 -18 C 15.671875 -18.382812 15.085938 -18.671875 14.421875 -18.859375 C 13.753906 -19.054688 13.039062 -19.15625 12.28125 -19.15625 C 10.320312 -19.15625 8.804688 -18.5625 7.734375 -17.375 C 6.660156 -16.1875 6.125 -14.613281 6.125 -12.65625 L 6.125 -8.96875 C 6.125 -7.007812 6.660156 -5.4375 7.734375 -4.25 C 8.804688 -3.0625 10.320312 -2.46875 12.28125 -2.46875 Z M 12.28125 -2.46875 "/></g></g></g><g fill="#38b6ff" fill-opacity="1"><g transform="translate(463.483014, 73.541145)"><g><path d="M 12.953125 0.5 C 11.390625 0.5 9.984375 0.234375 8.734375 -0.296875 C 7.492188 -0.828125 6.429688 -1.585938 5.546875 -2.578125 C 4.671875 -3.566406 3.992188 -4.753906 3.515625 -6.140625 C 3.046875 -7.523438 2.8125 -9.070312 2.8125 -10.78125 C 2.8125 -12.507812 3.054688 -14.070312 3.546875 -15.46875 C 4.035156 -16.863281 4.710938 -18.054688 5.578125 -19.046875 C 6.441406 -20.046875 7.476562 -20.8125 8.6875 -21.34375 C 9.90625 -21.875 11.257812 -22.140625 12.75 -22.140625 C 14.195312 -22.140625 15.515625 -21.875 16.703125 -21.34375 C 17.890625 -20.8125 18.898438 -20.078125 19.734375 -19.140625 C 20.578125 -18.203125 21.222656 -17.085938 21.671875 -15.796875 C 22.117188 -14.515625 22.34375 -13.109375 22.34375 -11.578125 L 22.34375 -9.984375 L 6.328125 -9.984375 L 6.328125 -8.96875 C 6.328125 -8.019531 6.476562 -7.140625 6.78125 -6.328125 C 7.09375 -5.515625 7.535156 -4.816406 8.109375 -4.234375 C 8.679688 -3.648438 9.378906 -3.195312 10.203125 -2.875 C 11.023438 -2.550781 11.941406 -2.390625 12.953125 -2.390625 C 14.410156 -2.390625 15.664062 -2.722656 16.71875 -3.390625 C 17.78125 -4.066406 18.59375 -4.988281 19.15625 -6.15625 L 21.625 -4.484375 C 20.988281 -3.035156 19.921875 -1.84375 18.421875 -0.90625 C 16.929688 0.03125 15.109375 0.5 12.953125 0.5 Z M 12.75 -19.375 C 11.820312 -19.375 10.96875 -19.203125 10.1875 -18.859375 C 9.40625 -18.523438 8.726562 -18.0625 8.15625 -17.46875 C 7.582031 -16.882812 7.132812 -16.195312 6.8125 -15.40625 C 6.488281 -14.613281 6.328125 -13.738281 6.328125 -12.78125 L 6.328125 -12.5 L 18.734375 -12.5 L 18.734375 -12.953125 C 18.734375 -13.898438 18.585938 -14.765625 18.296875 -15.546875 C 18.003906 -16.335938 17.597656 -17.019531 17.078125 -17.59375 C 16.566406 -18.164062 15.9375 -18.601562 15.1875 -18.90625 C 14.445312 -19.21875 13.632812 -19.375 12.75 -19.375 Z M 12.75 -19.375 "/></g></g></g></svg>