<?xml version="1.0" encoding="UTF-8"?>
<!-- Created with Inkscape (http://www.inkscape.org/) -->
<svg width="57.319mm" height="9.7684mm" version="1.1" viewBox="0 0 57.319 9.7684" xmlns="http://www.w3.org/2000/svg">
 <g transform="translate(-31.43 -17.951)">
  <g transform="translate(-55.175 -51.275)">
   <g fill="#007aa3" stroke-width=".26458" aria-label="bpfdeploy.io">
    <g transform="translate(.86046 .30433)">
     <path d="m88.39 76.69q-.5715 0-1.0372-.23283-.45508-.24342-.73025-.66675t-.30692-.96308v-1.5134q.03175-.55033.30692-.96308.28575-.42333.74083-.65616.46566-.24342 1.0266-.24342.68792 0 1.2382.34925.56092.34925.87841.94191t.3175 1.3335-.3175 1.3335-.87841.94191q-.55033.33867-1.2382.33867zm-.15875-.89958q.47625 0 .83608-.22225.35983-.22225.5715-.60325.21167-.39158.21167-.89958 0-.49742-.21167-.889-.21167-.39158-.5715-.60325-.35983-.22225-.8255-.22225-.47625 0-.83608.22225-.35983.21167-.56092.60325-.20108.39158-.20108.89958 0 .49742.1905.889.20108.381.56092.60325.37042.22225.83608.22225zm-2.4871.79375v-7.5565h.9525v3.7571l-.17992 1.2171.17992 1.2277v1.3547z"/>
     <path d="m94.55 76.69q-.5715 0-1.0372-.23283-.45508-.24342-.73025-.66675t-.30692-.96308v-1.5134q.03175-.55033.30692-.96308.28575-.42333.74083-.65616.46566-.24342 1.0266-.24342.68792 0 1.2382.34925.56092.34925.87841.94191t.3175 1.3335-.3175 1.3335-.87841.94191q-.55033.33867-1.2382.33867zm-.15875-.89958q.47625 0 .83608-.22225.35983-.22225.5715-.60325.21167-.39158.21167-.89958 0-.49742-.21167-.889-.21167-.39158-.5715-.60325-.35983-.22225-.8255-.22225-.47625 0-.83608.22225-.35983.21167-.56091.60325-.20108.39158-.20108.89958 0 .49742.1905.889.20108.381.56092.60325.37042.22225.83608.22225zm-2.4871 2.8998v-7.1331h.9525v1.3229l-.17992 1.2171.17992 1.2277v3.3655z"/>
     <path d="m98.625 76.584v-5.7785q0-.56091.24342-.97366.24342-.42333.66675-.66675.43392-.24342 1.0054-.24342.43391 0 .75141.14817t.58208.43392l-.62441.61383q-.13758-.14817-.30692-.22225-.16933-.08467-.41275-.08467-.45508 0-.70908.26458-.24342.26458-.24342.73025v5.7785zm-1.2382-4.1592v-.86783h3.7888v.86783z"/>
     <path d="m103.97 76.69q-.69849 0-1.2488-.33867-.55033-.34925-.87841-.94191-.3175-.59266-.3175-1.3335t.3175-1.3335q.32808-.59266.87841-.94191.55034-.34925 1.2488-.34925.56092 0 1.016.24342.45508.23283.73025.65616.28575.41275.3175.96308v1.5134q-.0318.53975-.30692.96308-.27516.42333-.73025.66675-.45508.23283-1.0266.23283zm.15875-.89958q.47625 0 .8255-.22225.35983-.22225.56092-.60325.20108-.39158.20108-.889 0-.51858-.21167-.89958-.20108-.381-.56091-.60325-.34925-.22225-.8255-.22225t-.83608.22225q-.35983.22225-.5715.61383-.20108.381-.20108.87841 0 .508.20108.89958.21167.381.5715.60325.37041.22225.84666.22225zm2.4871.79375h-.96308v-1.3547l.17991-1.2277-.17991-1.2171v-3.7571h.96308z"/>
     <path d="m110.33 76.69q-.75141 0-1.3547-.33867-.60325-.34925-.9525-.94191-.34924-.59266-.34924-1.3441 0-.74083.33866-1.3335.34925-.59266.93133-.93133.59267-.34925 1.3229-.34925.6985 0 1.2277.3175.53975.3175.83608.87841.30691.56091.30691 1.27 0 .10583-.0106.23283-.0106.11642-.0423.27517h-4.2439v-.79375h3.7359l-.34925.30692q0-.508-.17992-.85725-.17991-.35983-.50799-.55033-.32809-.20108-.79375-.20108-.48683 0-.85725.21167-.37041.21167-.5715.59266-.20108.381-.20108.89958 0 .52916.21167.93133.21166.39158.60324.61383.39159.21167.89958.21167.42334 0 .77259-.14817.35983-.14817.61383-.4445l.61383.62441q-.35983.42333-.889.64558-.51858.22225-1.1112.22225z"/>
     <path d="m116.32 76.69q-.5715 0-1.0372-.23283-.45508-.24342-.73025-.66675-.27516-.42333-.30691-.96308v-1.5134q.0317-.55033.30691-.96308.28575-.42333.74083-.65616.46567-.24342 1.0266-.24342.68791 0 1.2382.34925.56092.34925.87841.94191.3175.59266.3175 1.3335t-.3175 1.3335q-.31749.59266-.87841.94191-.55033.33867-1.2382.33867zm-.15875-.89958q.47624 0 .83608-.22225.35983-.22225.57149-.60325.21167-.39158.21167-.89958 0-.49742-.21167-.889-.21166-.39158-.57149-.60325-.35984-.22225-.8255-.22225-.47625 0-.83608.22225-.35983.21167-.56092.60325-.20108.39158-.20108.89958 0 .49742.1905.889.20108.381.56091.60325.37042.22225.83609.22225zm-2.4871 2.8998v-7.1331h.9525v1.3229l-.17992 1.2171.17992 1.2277v3.3655z"/>
     <path d="m119.83 76.584v-7.5565h.95249v7.5565z"/>
     <path d="m124.48 76.69q-.74083 0-1.3335-.34925-.59266-.34925-.94191-.94191-.34925-.60325-.34925-1.3441 0-.73025.34925-1.3123.34925-.59266.94191-.94191.59267-.34925 1.3335-.34925.73025 0 1.3229.34925.60325.33866.9525.93133t.34925 1.3229q0 .74083-.34925 1.3441-.34925.59266-.9525.94191-.59266.34925-1.3229.34925zm0-.92075q.47625 0 .84666-.22225.37042-.22225.58209-.60325.21166-.39158.21166-.889 0-.48683-.22225-.86783-.21166-.381-.58208-.59266-.35983-.22225-.83608-.22225t-.84666.22225q-.37042.21167-.58209.59266-.21166.381-.21166.86783 0 .49742.21166.889.21167.381.58209.60325.37041.22225.84666.22225z"/>
     <path d="m129.63 76.626-2.1802-5.0694h1.0583l1.6192 3.9687h-.33866l1.7039-3.9687h1.0583l-2.3495 5.0694zm-1.4393 2.0637 1.4817-3.0374.52917.97366-.9525 2.0637z"/>
     <path d="m133.54 76.69q-.29634 0-.49742-.20108-.1905-.21167-.1905-.49742 0-.29633.1905-.48683.20108-.20108.49742-.20108.29633 0 .48683.20108.20108.1905.20108.48683 0 .28575-.20108.49742-.1905.20108-.48683.20108z"/>
     <path d="m135.78 76.584v-5.0271h.9525v5.0271zm.47625-6.0325q-.26458 0-.43391-.16933-.16934-.17992-.16934-.4445 0-.254.16934-.42333.16933-.17992.43391-.17992t.43392.17992q.16933.16933.16933.42333 0 .26458-.16933.4445-.16934.16933-.43392.16933z"/>
     <path d="m140.44 76.69q-.74083 0-1.3335-.34925-.59266-.34925-.94191-.94191-.34925-.60325-.34925-1.3441 0-.73025.34925-1.3123.34925-.59266.94191-.94191.59267-.34925 1.3335-.34925.73025 0 1.3229.34925.60325.33866.9525.93133t.34925 1.3229q0 .74083-.34925 1.3441-.34925.59266-.9525.94191-.59266.34925-1.3229.34925zm0-.92075q.47625 0 .84666-.22225.37042-.22225.58208-.60325.21167-.39158.21167-.889 0-.48683-.22225-.86783-.21167-.381-.58208-.59266-.35983-.22225-.83608-.22225t-.84667.22225q-.37041.21167-.58208.59266-.21166.381-.21166.86783 0 .49742.21166.889.21167.381.58208.60325.37042.22225.84667.22225z"/>
    </g>
   </g>
  </g>
 </g>
</svg>
